<svg xmlns="http://www.w3.org/2000/svg" version="1.1" xmlns:xlink="http://www.w3.org/1999/xlink" xmlns:svgjs="http://svgjs.dev/svgjs" width="96.88" height="96.48"><svg version="1.1" id="SvgjsSvg1001" xmlns="http://www.w3.org/2000/svg" xmlns:xlink="http://www.w3.org/1999/xlink" x="0px" y="0px" viewBox="0 0 96.88 96.48" style="enable-background:new 0 0 96.88 96.48;" xml:space="preserve">
<style type="text/css">
	.st0{fill:#FFFFFF;}
	.st1{font-family:'EdwardianScriptITC';}
	.st2{font-size:52.9511px;}
	.st3{fill-rule:evenodd;clip-rule:evenodd;}
</style>
<rect class="st0" width="96.48" height="96.48"></rect>
<text transform="matrix(1 0 0 1 17.4526 50.6181)" class="st1 st2" svgjs:data="{&quot;leading&quot;:&quot;1.3&quot;}">&amp;</text>
<polyline class="st3" points="34.89,49.55 33.67,49.5 32.49,49.41 31.31,49.37 30.13,49.28 29,49.19 27.92,49.09 26.83,49 
	25.74,48.91 25.74,48.69 25.92,48.19 26.28,47.74 27.05,47.6 27.51,47.69 27.96,47.78 28.41,47.87 28.91,47.96 29.41,48.1 
	30.04,48.19 30.72,48.28 31.58,48.37 32.13,48.42 32.76,48.46 33.48,48.51 34.3,48.55 35.16,48.6 "></polyline>
<polyline class="st3" points="27.74,39.9 26.69,40.04 25.79,40.17 24.88,40.31 23.98,40.49 22.98,40.63 21.94,40.81 20.94,40.94 
	19.9,41.12 18.95,41.31 18,41.53 17.14,41.76 16.37,41.98 15.69,42.21 15.1,42.44 14.69,42.71 14.42,43.03 14.38,43.34 14.47,43.66 
	14.97,44.29 15.6,44.84 16.37,45.25 17.19,45.61 18,45.88 18.77,46.06 19.49,46.24 20.13,46.38 20.9,46.6 21.17,46.83 21.12,46.97 
	20.81,47.1 20.4,47.19 19.95,47.24 19.58,47.28 19.45,47.28 19.45,47.28 18.5,47.1 17.59,46.92 16.73,46.69 15.96,46.51 
	15.19,46.29 14.51,46.11 13.88,45.88 13.34,45.65 12.84,45.43 12.38,45.2 12.02,44.93 11.71,44.7 11.43,44.48 11.25,44.2 
	11.16,43.98 11.12,43.71 11.16,43.43 11.25,43.21 11.48,42.94 11.71,42.71 12.07,42.48 12.43,42.21 12.93,41.98 13.47,41.76 
	14.06,41.53 14.69,41.31 15.42,41.12 16.23,40.9 17.05,40.67 17.96,40.49 18.91,40.31 19.9,40.13 20.94,39.95 22.03,39.77 
	23.21,39.58 24.39,39.45 25.61,39.31 26.88,39.13 "></polyline>
<polygon class="st3" points="72.19,48.32 73.46,48.19 74.64,48.01 75.82,47.87 76.95,47.69 78.04,47.51 79.08,47.33 80.03,47.15 
	80.98,46.97 81.84,46.74 82.66,46.56 83.42,46.33 84.15,46.11 84.78,45.88 85.37,45.65 85.87,45.43 86.32,45.2 86.91,44.84 
	87.32,44.48 87.55,44.11 87.64,43.71 87.59,43.39 87.41,43.12 87.18,42.85 86.82,42.53 86.37,42.26 85.82,41.98 85.15,41.71 
	84.42,41.44 83.61,41.17 82.7,40.94 81.75,40.72 80.66,40.44 79.53,40.22 78.35,40.04 77.08,39.81 75.73,39.63 75.59,39.63 
	75.32,39.67 74.96,39.67 74.59,39.72 74.37,39.77 74.28,39.86 74.46,39.9 75.05,39.99 75.73,40.08 76.45,40.22 77.18,40.35 
	77.9,40.54 78.62,40.67 79.35,40.9 80.07,41.08 80.71,41.26 81.34,41.49 81.93,41.71 82.43,41.89 82.93,42.12 83.29,42.3 
	83.56,42.53 83.79,42.66 83.88,42.85 83.97,43.43 83.92,43.93 83.83,44.38 83.56,44.75 83.24,45.06 82.79,45.34 82.25,45.56 
	81.61,45.79 81.21,45.92 80.62,46.02 79.94,46.15 79.21,46.29 78.35,46.47 77.49,46.6 76.59,46.74 75.73,46.88 74.87,47.01 
	74.01,47.1 73.28,47.24 72.6,47.33 72.06,47.42 71.61,47.46 71.33,47.51 71.24,47.51 70.07,48.55 70.34,48.51 70.61,48.51 
	70.88,48.46 71.15,48.42 71.42,48.37 71.7,48.37 71.92,48.32 72.19,48.32 "></polygon>
<polygon class="st3" points="11.66,73.23 11.66,73.28 11.71,73.46 11.8,73.73 12.02,74.09 12.43,74.45 13.06,74.91 13.92,75.31 
	15.1,75.77 16.37,76.08 17.55,76.22 18.59,76.17 19.49,76.08 20.17,75.9 20.72,75.72 21.03,75.59 21.17,75.54 21.17,76.13 
	21.17,77.58 21.17,79.21 21.17,80.57 21.22,80.93 21.35,81.11 21.58,81.16 21.94,81.11 22.44,80.98 23.12,80.88 23.93,80.79 
	24.97,80.79 26.06,80.75 27.01,80.57 27.92,80.25 28.78,79.89 29.55,79.53 30.32,79.25 31.09,79.07 31.86,79.12 32.58,79.39 
	33.17,79.93 33.76,80.61 34.39,81.34 35.16,82.06 36.11,82.69 37.38,83.1 39.01,83.28 39.92,83.28 40.73,83.33 41.5,83.33 
	42.23,83.37 42.91,83.42 43.54,83.47 44.17,83.51 44.81,83.56 45.4,83.6 45.99,83.65 46.62,83.69 47.21,83.69 47.89,83.69 
	48.52,83.69 49.25,83.65 49.97,83.6 51.28,83.37 52.1,82.97 52.51,82.47 52.69,81.93 52.6,81.43 52.46,80.98 52.33,80.7 
	52.23,80.57 52.23,80.52 52.23,80.48 52.28,80.34 52.42,80.25 52.73,80.16 53.23,80.16 53.91,80.2 54.91,80.34 55.45,80.48 
	55.9,80.66 56.36,80.84 56.76,81.06 57.13,81.34 57.49,81.56 57.9,81.83 58.26,82.06 58.71,82.29 59.16,82.51 59.71,82.65 
	60.3,82.79 60.93,82.83 61.7,82.83 62.56,82.79 63.51,82.65 62.83,83.19 62.2,83.6 61.56,83.92 61.02,84.1 60.48,84.24 59.93,84.28 
	59.44,84.24 58.98,84.19 58.48,84.05 58.03,83.92 57.53,83.74 57.08,83.56 56.58,83.33 56.08,83.15 55.54,83.01 55,82.88 
	54.05,82.74 53.46,82.79 53.14,82.88 53.05,83.06 53.05,83.24 53.19,83.47 53.28,83.6 53.32,83.65 53.41,83.74 53.59,84.01 
	53.82,84.37 53.96,84.82 53.86,85.28 53.46,85.73 52.69,86.05 51.42,86.27 50.65,86.32 49.79,86.36 48.93,86.32 48.07,86.27 
	47.12,86.18 46.21,86.09 45.26,86 44.27,85.87 43.31,85.73 42.32,85.59 41.37,85.5 40.37,85.37 39.42,85.28 38.42,85.19 
	37.47,85.14 36.57,85.14 35.03,85.01 33.99,84.6 33.35,84.05 32.94,83.37 32.67,82.74 32.45,82.11 32.08,81.65 31.45,81.38 
	31.09,81.34 30.73,81.38 30.41,81.47 30.09,81.61 29.77,81.79 29.46,82.02 29.14,82.24 28.78,82.47 28.42,82.69 27.96,82.97 
	27.51,83.19 26.97,83.37 26.38,83.56 25.7,83.69 24.93,83.78 24.11,83.83 23.07,83.78 22.26,83.65 21.58,83.47 21.08,83.19 
	20.76,82.88 20.54,82.47 20.4,82.02 20.35,81.56 20.31,80.52 20.17,79.53 19.99,78.8 19.95,78.48 19.86,78.48 19.68,78.53 
	19.27,78.57 18.77,78.57 18.05,78.53 17.19,78.44 16.1,78.21 14.88,77.85 13.7,77.35 12.84,76.76 12.2,76.13 11.84,75.54 
	11.61,74.95 11.48,74.5 11.48,74.18 11.48,74.05 11.66,73.23 "></polygon>
<polygon class="st3" points="19.95,54.17 19.99,54.89 19.95,55.71 19.77,57.16 19.49,59.83 19.27,64.67 19.22,68.34 19.4,71.01 
	19.68,72.78 20.04,73.91 20.35,74.5 20.58,74.73 20.67,74.77 20.67,74.27 20.72,72.23 20.81,67.52 20.94,62.14 21.08,58.2 
	21.12,56.93 21.17,55.71 21.12,54.53 21.03,53.49 20.85,52.54 20.63,51.77 20.22,51.18 19.72,50.81 19.36,50.72 19.09,50.68 
	18.91,50.72 18.86,50.72 19,51.09 19.31,51.99 19.68,53.12 19.95,54.17 "></polygon>
<polygon class="st3" points="62.42,52.76 62.33,53.53 62.42,54.8 62.6,56.43 62.88,58.38 63.15,60.46 63.42,62.59 63.6,64.67 
	63.69,66.53 63.69,71.37 63.69,75.68 63.69,78.76 63.69,79.93 61.38,76.81 61.47,74.77 61.7,70.02 61.84,64.58 61.84,60.64 
	61.7,59.24 61.56,57.7 61.43,56.11 61.29,54.53 61.29,53.08 61.38,51.86 61.65,50.95 62.11,50.45 62.47,50.45 62.79,50.68 
	62.97,50.95 63.06,51.09 62.97,51.31 62.79,51.77 62.56,52.35 62.42,52.76 "></polygon>
<polygon class="st3" points="12.24,70.11 12.33,69.42 12.28,68.29 12.18,66.83 12.01,65.08 11.85,63.21 11.69,61.3 11.59,59.43 
	11.56,57.77 11.66,53.43 11.75,49.58 11.81,46.82 11.84,45.77 13.54,48.6 13.43,50.43 13.16,54.68 12.94,59.54 12.86,63.07 
	12.93,64.33 13,65.71 13.07,67.13 13.14,68.55 13.11,69.85 13.02,70.94 12.79,71.75 12.44,72.19 12.16,72.18 11.92,71.97 
	11.79,71.72 11.72,71.6 11.8,71.4 11.94,71 12.13,70.48 12.24,70.11 "></polygon>
<polygon class="st3" points="69.76,82.06 69.9,82.06 70.26,82.11 70.85,82.15 71.66,82.2 72.7,82.29 73.88,82.33 75.19,82.38 
	76.69,82.38 78.05,82.33 79.09,82.2 79.81,81.93 80.27,81.61 80.49,81.16 80.54,80.57 80.4,79.89 80.18,79.12 79.99,78.48 
	79.95,77.94 79.99,77.44 80.18,77.04 80.49,76.72 80.99,76.45 81.58,76.27 82.35,76.17 83.07,76.04 83.62,75.81 83.98,75.45 
	84.16,75.04 84.21,74.54 84.16,74.05 84.02,73.5 83.84,73 83.39,69.83 82.98,64.13 82.71,58.69 82.58,56.25 83.39,57.52 
	83.44,58.24 83.62,60.23 83.84,63.04 84.16,66.3 84.43,69.61 84.75,72.6 85.07,74.91 85.29,76.08 85.48,76.58 85.66,76.99 
	85.7,77.4 85.66,77.76 85.48,78.08 85.11,78.35 84.57,78.53 83.84,78.62 83.03,78.71 82.39,78.94 81.85,79.16 81.49,79.48 
	81.31,79.84 81.31,80.25 81.49,80.66 81.94,81.06 82.35,81.56 82.49,82.24 82.35,82.92 81.9,83.6 81.22,84.19 80.22,84.6 79,84.78 
	77.5,84.6 76.73,84.42 75.92,84.24 75.1,84.05 74.24,83.87 73.43,83.69 72.61,83.56 71.8,83.37 71.07,83.19 70.35,83.06 
	69.72,82.92 69.13,82.83 68.63,82.69 68.22,82.65 67.95,82.56 67.72,82.51 67.68,82.51 69.76,82.06 "></polygon>
<polygon class="st3" points="78.54,74.75 78.55,74.06 78.42,72.93 78.21,71.48 77.91,69.76 77.61,67.9 77.3,66.02 77.06,64.16 
	76.89,62.51 76.61,58.18 76.36,54.33 76.18,51.58 76.11,50.53 77.83,53.22 77.89,55.05 78.01,59.3 78.24,64.17 78.47,67.69 
	78.64,68.94 78.82,70.31 79.01,71.72 79.19,73.13 79.27,74.42 79.29,75.52 79.16,76.34 78.89,76.8 78.64,76.82 78.42,76.63 
	78.28,76.4 78.22,76.28 78.26,76.07 78.36,75.66 78.47,75.12 78.54,74.75 "></polygon>
</svg><style>@media (prefers-color-scheme: light) { :root { filter: none; } }
@media (prefers-color-scheme: dark) { :root { filter: none; } }
</style></svg>